<svg width="496" height="496" viewBox="0 0 496 496" fill="none" xmlns="http://www.w3.org/2000/svg">
<rect width="496" height="496" fill="url(#paint0_radial_8_293)"/>
<path d="M400 251C398.895 251 398 251.895 398 253C398 254.105 398.895 255 400 255V251ZM465.414 254.414C466.195 253.633 466.195 252.367 465.414 251.586L452.686 238.858C451.905 238.077 450.639 238.077 449.858 238.858C449.077 239.639 449.077 240.905 449.858 241.686L461.172 253L449.858 264.314C449.077 265.095 449.077 266.361 449.858 267.142C450.639 267.923 451.905 267.923 452.686 267.142L465.414 254.414ZM400 255H464V251H400V255Z" fill="url(#paint1_linear_8_293)"/>
<path d="M400 307C398.895 307 398 307.895 398 309C398 310.105 398.895 311 400 311V307ZM465.414 310.414C466.195 309.633 466.195 308.367 465.414 307.586L452.686 294.858C451.905 294.077 450.639 294.077 449.858 294.858C449.077 295.639 449.077 296.905 449.858 297.686L461.172 309L449.858 320.314C449.077 321.095 449.077 322.361 449.858 323.142C450.639 323.923 451.905 323.923 452.686 323.142L465.414 310.414ZM400 311H464V307H400V311Z" fill="url(#paint2_linear_8_293)"/>
<path d="M302 96C302 97.1046 302.895 98 304 98C305.105 98 306 97.1046 306 96L302 96ZM305.414 30.5858C304.633 29.8047 303.367 29.8047 302.586 30.5858L289.858 43.3137C289.077 44.0948 289.077 45.3611 289.858 46.1421C290.639 46.9232 291.905 46.9232 292.686 46.1421L304 34.8284L315.314 46.1421C316.095 46.9232 317.361 46.9232 318.142 46.1421C318.923 45.3611 318.923 44.0948 318.142 43.3137L305.414 30.5858ZM306 96L306 32L302 32L302 96L306 96Z" fill="url(#paint3_linear_8_293)"/>
<path d="M96 250C97.1046 250 98 249.105 98 248C98 246.895 97.1046 246 96 246L96 250ZM30.5858 246.586C29.8047 247.367 29.8047 248.633 30.5858 249.414L43.3137 262.142C44.0948 262.923 45.3611 262.923 46.1421 262.142C46.9232 261.361 46.9232 260.095 46.1421 259.314L34.8284 248L46.1421 236.686C46.9232 235.905 46.9232 234.639 46.1421 233.858C45.3611 233.077 44.0948 233.077 43.3137 233.858L30.5858 246.586ZM96 246L32 246L32 250L96 250L96 246Z" fill="url(#paint4_linear_8_293)"/>
<path d="M400 195C398.895 195 398 195.895 398 197C398 198.105 398.895 199 400 199V195ZM465.414 198.414C466.195 197.633 466.195 196.367 465.414 195.586L452.686 182.858C451.905 182.077 450.639 182.077 449.858 182.858C449.077 183.639 449.077 184.905 449.858 185.686L461.172 197L449.858 208.314C449.077 209.095 449.077 210.361 449.858 211.142C450.639 211.923 451.905 211.923 452.686 211.142L465.414 198.414ZM400 199H464V195H400V199Z" fill="url(#paint5_linear_8_293)"/>
<path d="M190 96C190 97.1046 190.895 98 192 98C193.105 98 194 97.1046 194 96L190 96ZM193.414 30.5858C192.633 29.8047 191.367 29.8047 190.586 30.5858L177.858 43.3137C177.077 44.0948 177.077 45.3611 177.858 46.1421C178.639 46.9232 179.905 46.9232 180.686 46.1421L192 34.8284L203.314 46.1421C204.095 46.9232 205.361 46.9232 206.142 46.1421C206.923 45.3611 206.923 44.0948 206.142 43.3137L193.414 30.5858ZM194 96L194 32L190 32L190 96L194 96Z" fill="url(#paint6_linear_8_293)"/>
<path d="M250 8C250 6.89543 249.105 6 248 6C246.895 6 246 6.89543 246 8L250 8ZM246.586 89.4142C247.367 90.1953 248.633 90.1953 249.414 89.4142L262.142 76.6863C262.923 75.9052 262.923 74.6389 262.142 73.8579C261.361 73.0768 260.095 73.0768 259.314 73.8579L248 85.1716L236.686 73.8579C235.905 73.0768 234.639 73.0768 233.858 73.8579C233.077 74.6389 233.077 75.9052 233.858 76.6863L246.586 89.4142ZM246 8L246 88L250 88L250 8L246 8Z" fill="url(#paint7_linear_8_293)"/>
<path d="M190 488C190 489.105 190.895 490 192 490C193.105 490 194 489.105 194 488L190 488ZM193.414 406.586C192.633 405.805 191.367 405.805 190.586 406.586L177.858 419.314C177.077 420.095 177.077 421.361 177.858 422.142C178.639 422.923 179.905 422.923 180.686 422.142L192 410.828L203.314 422.142C204.095 422.923 205.361 422.923 206.142 422.142C206.923 421.361 206.923 420.095 206.142 419.314L193.414 406.586ZM194 488L194 408L190 408L190 488L194 488Z" fill="url(#paint8_linear_8_293)"/>
<path d="M246 488C246 489.105 246.895 490 248 490C249.105 490 250 489.105 250 488L246 488ZM249.414 406.586C248.633 405.805 247.367 405.805 246.586 406.586L233.858 419.314C233.077 420.095 233.077 421.361 233.858 422.142C234.639 422.923 235.905 422.923 236.686 422.142L248 410.828L259.314 422.142C260.095 422.923 261.361 422.923 262.142 422.142C262.923 421.361 262.923 420.095 262.142 419.314L249.414 406.586ZM250 488L250 408L246 408L246 488L250 488Z" fill="url(#paint9_linear_8_293)"/>
<path d="M302 488C302 489.105 302.895 490 304 490C305.105 490 306 489.105 306 488L302 488ZM305.414 406.586C304.633 405.805 303.367 405.805 302.586 406.586L289.858 419.314C289.077 420.095 289.077 421.361 289.858 422.142C290.639 422.923 291.905 422.923 292.686 422.142L304 410.828L315.314 422.142C316.095 422.923 317.361 422.923 318.142 422.142C318.923 421.361 318.923 420.095 318.142 419.314L305.414 406.586ZM306 488L306 408L302 408L302 488L306 488Z" fill="url(#paint10_linear_8_293)"/>
<path d="M8 190C6.89543 190 6 190.895 6 192C6 193.105 6.89543 194 8 194V190ZM89.4142 193.414C90.1953 192.633 90.1953 191.367 89.4142 190.586L76.6863 177.858C75.9052 177.077 74.6389 177.077 73.8579 177.858C73.0768 178.639 73.0768 179.905 73.8579 180.686L85.1716 192L73.8579 203.314C73.0768 204.095 73.0768 205.361 73.8579 206.142C74.6389 206.923 75.9052 206.923 76.6863 206.142L89.4142 193.414ZM8 194H88V190H8V194Z" fill="url(#paint11_linear_8_293)"/>
<path d="M8 302C6.89543 302 6 302.895 6 304C6 305.105 6.89543 306 8 306V302ZM89.4142 305.414C90.1953 304.633 90.1953 303.367 89.4142 302.586L76.6863 289.858C75.9052 289.077 74.6389 289.077 73.8579 289.858C73.0768 290.639 73.0768 291.905 73.8579 292.686L85.1716 304L73.8579 315.314C73.0768 316.095 73.0768 317.361 73.8579 318.142C74.6389 318.923 75.9052 318.923 76.6863 318.142L89.4142 305.414ZM8 306H88V302H8V306Z" fill="url(#paint12_linear_8_293)"/>
<rect x="98" y="98" width="300" height="300" rx="14" fill="#262626" stroke="url(#paint13_linear_8_293)" stroke-width="4"/>
<path d="M163 186.8L163 223.6C163 225.809 164.791 227.6 167 227.6L214 227.6" stroke="#FFCD93" stroke-width="3.4" stroke-linecap="round"/>
<path d="M163 309.2L163 272.4C163 270.191 164.791 268.4 167 268.4L214 268.4" stroke="#FFCD93" stroke-width="3.4" stroke-linecap="round"/>
<path d="M149.4 248H203.8" stroke="#FFCD93" stroke-width="3.4" stroke-linecap="round"/>
<circle cx="163" cy="190.2" r="8.5" fill="#262626" stroke="#FFCD93" stroke-width="3.4"/>
<circle cx="149.4" cy="248" r="8.5" fill="#262626" stroke="#FFCD93" stroke-width="3.4"/>
<circle r="8.5" transform="matrix(1 0 0 -1 163 305.8)" fill="#262626" stroke="#FFCD93" stroke-width="3.4"/>
<mask id="path-21-inside-1_8_293" fill="white">
<path fill-rule="evenodd" clip-rule="evenodd" d="M299 207.2H197C187.611 207.2 180 225.467 180 248C180 270.533 187.611 288.8 197 288.8C197.004 288.8 197.007 288.8 197.011 288.8H299V207.2Z"/>
</mask>
<path fill-rule="evenodd" clip-rule="evenodd" d="M299 207.2H197C187.611 207.2 180 225.467 180 248C180 270.533 187.611 288.8 197 288.8C197.004 288.8 197.007 288.8 197.011 288.8H299V207.2Z" fill="#262626"/>
<path d="M197 207.2V203.8H197L197 207.2ZM299 207.2H302.4V203.8H299V207.2ZM197 288.8V285.4H197L197 288.8ZM299 288.8V292.2H302.4V288.8H299ZM197 210.6H299V203.8H197V210.6ZM183.4 248C183.4 237.07 185.252 227.334 188.118 220.458C189.553 217.012 191.176 214.445 192.805 212.792C194.422 211.151 195.837 210.6 197 210.6L197 203.8C193.468 203.8 190.412 205.532 187.961 208.02C185.522 210.496 183.481 213.905 181.841 217.842C178.553 225.732 176.6 236.397 176.6 248H183.4ZM197 285.4C195.837 285.4 194.422 284.849 192.805 283.208C191.176 281.555 189.553 278.988 188.118 275.542C185.252 268.666 183.4 258.93 183.4 248H176.6C176.6 259.603 178.553 270.268 181.841 278.158C183.481 282.095 185.522 285.504 187.961 287.98C190.412 290.468 193.468 292.2 197 292.2L197 285.4ZM197.011 285.4C197.011 285.4 197.01 285.4 197.01 285.4C197.01 285.4 197.01 285.4 197.01 285.4C197.01 285.4 197.01 285.4 197.01 285.4C197.01 285.4 197.01 285.4 197.01 285.4C197.01 285.4 197.01 285.4 197.01 285.4C197.01 285.4 197.01 285.4 197.01 285.4C197.01 285.4 197.01 285.4 197.01 285.4C197.01 285.4 197.01 285.4 197.01 285.4C197.01 285.4 197.01 285.4 197.01 285.4C197.01 285.4 197.01 285.4 197.01 285.4C197.01 285.4 197.01 285.4 197.01 285.4C197.01 285.4 197.01 285.4 197.01 285.4C197.01 285.4 197.01 285.4 197.01 285.4C197.01 285.4 197.01 285.4 197.01 285.4C197.01 285.4 197.01 285.4 197.01 285.4C197.01 285.4 197.01 285.4 197.01 285.4C197.01 285.4 197.01 285.4 197.01 285.4C197.01 285.4 197.01 285.4 197.01 285.4C197.01 285.4 197.01 285.4 197.01 285.4C197.01 285.4 197.01 285.4 197.01 285.4C197.01 285.4 197.01 285.4 197.01 285.4C197.01 285.4 197.01 285.4 197.01 285.4C197.01 285.4 197.01 285.4 197.01 285.4C197.01 285.4 197.01 285.4 197.01 285.4C197.01 285.4 197.01 285.4 197.01 285.4C197.01 285.4 197.01 285.4 197.01 285.4C197.01 285.4 197.01 285.4 197.01 285.4C197.01 285.4 197.01 285.4 197.01 285.4C197.01 285.4 197.01 285.4 197.01 285.4C197.01 285.4 197.01 285.4 197.01 285.4C197.01 285.4 197.01 285.4 197.01 285.4C197.01 285.4 197.01 285.4 197.01 285.4C197.01 285.4 197.01 285.4 197.01 285.4C197.01 285.4 197.01 285.4 197.01 285.4C197.01 285.4 197.01 285.4 197.01 285.4C197.01 285.4 197.01 285.4 197.01 285.4C197.01 285.4 197.01 285.4 197.01 285.4C197.01 285.4 197.01 285.4 197.01 285.4C197.01 285.4 197.01 285.4 197.01 285.4C197.01 285.4 197.01 285.4 197.01 285.4C197.01 285.4 197.01 285.4 197.01 285.4C197.01 285.4 197.01 285.4 197.01 285.4C197.01 285.4 197.01 285.4 197.01 285.4C197.01 285.4 197.01 285.4 197.01 285.4C197.01 285.4 197.01 285.4 197.01 285.4C197.01 285.4 197.01 285.4 197.01 285.4C197.01 285.4 197.01 285.4 197.01 285.4C197.01 285.4 197.01 285.4 197.01 285.4C197.01 285.4 197.01 285.4 197.01 285.4C197.009 285.4 197.009 285.4 197.009 285.4C197.009 285.4 197.009 285.4 197.009 285.4C197.009 285.4 197.009 285.4 197.009 285.4C197.009 285.4 197.009 285.4 197.009 285.4C197.009 285.4 197.009 285.4 197.009 285.4C197.009 285.4 197.009 285.4 197.009 285.4C197.009 285.4 197.009 285.4 197.009 285.4C197.009 285.4 197.009 285.4 197.009 285.4C197.009 285.4 197.009 285.4 197.009 285.4C197.009 285.4 197.009 285.4 197.009 285.4C197.009 285.4 197.009 285.4 197.009 285.4C197.009 285.4 197.009 285.4 197.009 285.4C197.009 285.4 197.009 285.4 197.009 285.4C197.009 285.4 197.009 285.4 197.009 285.4C197.009 285.4 197.009 285.4 197.009 285.4C197.009 285.4 197.009 285.4 197.009 285.4C197.009 285.4 197.009 285.4 197.009 285.4C197.009 285.4 197.009 285.4 197.009 285.4C197.009 285.4 197.009 285.4 197.009 285.4C197.009 285.4 197.009 285.4 197.009 285.4C197.009 285.4 197.009 285.4 197.009 285.4C197.009 285.4 197.009 285.4 197.009 285.4C197.009 285.4 197.009 285.4 197.009 285.4C197.009 285.4 197.009 285.4 197.009 285.4C197.009 285.4 197.009 285.4 197.009 285.4C197.009 285.4 197.009 285.4 197.009 285.4C197.009 285.4 197.009 285.4 197.009 285.4C197.009 285.4 197.009 285.4 197.009 285.4C197.009 285.4 197.009 285.4 197.009 285.4C197.009 285.4 197.009 285.4 197.009 285.4C197.009 285.4 197.009 285.4 197.009 285.4C197.009 285.4 197.009 285.4 197.009 285.4C197.009 285.4 197.009 285.4 197.009 285.4C197.009 285.4 197.009 285.4 197.009 285.4C197.009 285.4 197.009 285.4 197.009 285.4C197.009 285.4 197.009 285.4 197.009 285.4C197.009 285.4 197.009 285.4 197.009 285.4C197.009 285.4 197.009 285.4 197.009 285.4C197.009 285.4 197.009 285.4 197.009 285.4C197.009 285.4 197.009 285.4 197.009 285.4C197.009 285.4 197.009 285.4 197.009 285.4C197.009 285.4 197.009 285.4 197.009 285.4C197.009 285.4 197.009 285.4 197.009 285.4C197.009 285.4 197.009 285.4 197.009 285.4C197.009 285.4 197.009 285.4 197.009 285.4C197.009 285.4 197.009 285.4 197.009 285.4C197.009 285.4 197.009 285.4 197.009 285.4C197.009 285.4 197.009 285.4 197.009 285.4C197.009 285.4 197.009 285.4 197.008 285.4C197.008 285.4 197.008 285.4 197.008 285.4C197.008 285.4 197.008 285.4 197.008 285.4C197.008 285.4 197.008 285.4 197.008 285.4C197.008 285.4 197.008 285.4 197.008 285.4C197.008 285.4 197.008 285.4 197.008 285.4C197.008 285.4 197.008 285.4 197.008 285.4C197.008 285.4 197.008 285.4 197.008 285.4C197.008 285.4 197.008 285.4 197.008 285.4C197.008 285.4 197.008 285.4 197.008 285.4C197.008 285.4 197.008 285.4 197.008 285.4C197.008 285.4 197.008 285.4 197.008 285.4C197.008 285.4 197.008 285.4 197.008 285.4C197.008 285.4 197.008 285.4 197.008 285.4C197.008 285.4 197.008 285.4 197.008 285.4C197.008 285.4 197.008 285.4 197.008 285.4C197.008 285.4 197.008 285.4 197.008 285.4C197.008 285.4 197.008 285.4 197.008 285.4C197.008 285.4 197.008 285.4 197.008 285.4C197.008 285.4 197.008 285.4 197.008 285.4C197.008 285.4 197.008 285.4 197.008 285.4C197.008 285.4 197.008 285.4 197.008 285.4C197.008 285.4 197.008 285.4 197.008 285.4C197.008 285.4 197.008 285.4 197.008 285.4C197.008 285.4 197.008 285.4 197.008 285.4C197.008 285.4 197.008 285.4 197.008 285.4C197.008 285.4 197.008 285.4 197.008 285.4C197.008 285.4 197.008 285.4 197.008 285.4C197.008 285.4 197.008 285.4 197.008 285.4C197.008 285.4 197.008 285.4 197.008 285.4C197.008 285.4 197.008 285.4 197.008 285.4C197.008 285.4 197.008 285.4 197.008 285.4C197.008 285.4 197.008 285.4 197.008 285.4C197.008 285.4 197.008 285.4 197.008 285.4C197.008 285.4 197.008 285.4 197.008 285.4C197.008 285.4 197.008 285.4 197.008 285.4C197.008 285.4 197.008 285.4 197.008 285.4C197.008 285.4 197.008 285.4 197.008 285.4C197.008 285.4 197.008 285.4 197.008 285.4C197.008 285.4 197.008 285.4 197.008 285.4C197.008 285.4 197.008 285.4 197.008 285.4C197.008 285.4 197.008 285.4 197.008 285.4C197.008 285.4 197.008 285.4 197.008 285.4C197.008 285.4 197.008 285.4 197.008 285.4C197.008 285.4 197.008 285.4 197.008 285.4C197.008 285.4 197.008 285.4 197.008 285.4C197.008 285.4 197.008 285.4 197.008 285.4C197.008 285.4 197.008 285.4 197.008 285.4C197.008 285.4 197.008 285.4 197.008 285.4C197.008 285.4 197.007 285.4 197.007 285.4C197.007 285.4 197.007 285.4 197.007 285.4C197.007 285.4 197.007 285.4 197.007 285.4C197.007 285.4 197.007 285.4 197.007 285.4C197.007 285.4 197.007 285.4 197.007 285.4C197.007 285.4 197.007 285.4 197.007 285.4C197.007 285.4 197.007 285.4 197.007 285.4C197.007 285.4 197.007 285.4 197.007 285.4C197.007 285.4 197.007 285.4 197.007 285.4C197.007 285.4 197.007 285.4 197.007 285.4C197.007 285.4 197.007 285.4 197.007 285.4C197.007 285.4 197.007 285.4 197.007 285.4C197.007 285.4 197.007 285.4 197.007 285.4C197.007 285.4 197.007 285.4 197.007 285.4C197.007 285.4 197.007 285.4 197.007 285.4C197.007 285.4 197.007 285.4 197.007 285.4C197.007 285.4 197.007 285.4 197.007 285.4C197.007 285.4 197.007 285.4 197.007 285.4C197.007 285.4 197.007 285.4 197.007 285.4C197.007 285.4 197.007 285.4 197.007 285.4C197.007 285.4 197.007 285.4 197.007 285.4C197.007 285.4 197.007 285.4 197.007 285.4C197.007 285.4 197.007 285.4 197.007 285.4C197.007 285.4 197.007 285.4 197.007 285.4C197.007 285.4 197.007 285.4 197.007 285.4C197.007 285.4 197.007 285.4 197.007 285.4C197.007 285.4 197.007 285.4 197.007 285.4C197.007 285.4 197.007 285.4 197.007 285.4C197.007 285.4 197.007 285.4 197.007 285.4C197.007 285.4 197.007 285.4 197.007 285.4C197.007 285.4 197.007 285.4 197.007 285.4C197.007 285.4 197.007 285.4 197.007 285.4C197.007 285.4 197.007 285.4 197.007 285.4C197.007 285.4 197.007 285.4 197.007 285.4C197.007 285.4 197.007 285.4 197.007 285.4C197.007 285.4 197.007 285.4 197.007 285.4C197.007 285.4 197.007 285.4 197.007 285.4C197.007 285.4 197.007 285.4 197.007 285.4C197.007 285.4 197.007 285.4 197.007 285.4C197.007 285.4 197.007 285.4 197.007 285.4C197.007 285.4 197.007 285.4 197.007 285.4C197.007 285.4 197.007 285.4 197.007 285.4C197.007 285.4 197.007 285.4 197.007 285.4C197.007 285.4 197.007 285.4 197.007 285.4C197.007 285.4 197.007 285.4 197.007 285.4C197.007 285.4 197.007 285.4 197.007 285.4C197.007 285.4 197.007 285.4 197.007 285.4C197.007 285.4 197.007 285.4 197.007 285.4C197.007 285.4 197.007 285.4 197.007 285.4C197.007 285.4 197.006 285.4 197.006 285.4C197.006 285.4 197.006 285.4 197.006 285.4C197.006 285.4 197.006 285.4 197.006 285.4C197.006 285.4 197.006 285.4 197.006 285.4C197.006 285.4 197.006 285.4 197.006 285.4C197.006 285.4 197.006 285.4 197.006 285.4C197.006 285.4 197.006 285.4 197.006 285.4C197.006 285.4 197.006 285.4 197.006 285.4C197.006 285.4 197.006 285.4 197.006 285.4C197.006 285.4 197.006 285.4 197.006 285.4C197.006 285.4 197.006 285.4 197.006 285.4C197.006 285.4 197.006 285.4 197.006 285.4C197.006 285.4 197.006 285.4 197.006 285.4C197.006 285.4 197.006 285.4 197.006 285.4C197.006 285.4 197.006 285.4 197.006 285.4C197.006 285.4 197.006 285.4 197.006 285.4C197.006 285.4 197.006 285.4 197.006 285.4C197.006 285.4 197.006 285.4 197.006 285.4C197.006 285.4 197.006 285.4 197.006 285.4C197.006 285.4 197.006 285.4 197.006 285.4C197.006 285.4 197.006 285.4 197.006 285.4C197.006 285.4 197.006 285.4 197.006 285.4C197.006 285.4 197.006 285.4 197.006 285.4C197.006 285.4 197.006 285.4 197.006 285.4C197.006 285.4 197.006 285.4 197.006 285.4C197.006 285.4 197.006 285.4 197.006 285.4C197.006 285.4 197.006 285.4 197.006 285.4C197.006 285.4 197.006 285.4 197.006 285.4C197.006 285.4 197.006 285.4 197.006 285.4C197.006 285.4 197.006 285.4 197.006 285.4C197.006 285.4 197.006 285.4 197.006 285.4C197.006 285.4 197.006 285.4 197.006 285.4C197.006 285.4 197.006 285.4 197.006 285.4C197.006 285.4 197.006 285.4 197.006 285.4C197.006 285.4 197.006 285.4 197.006 285.4C197.006 285.4 197.006 285.4 197.006 285.4C197.006 285.4 197.006 285.4 197.006 285.4C197.006 285.4 197.006 285.4 197.006 285.4C197.006 285.4 197.006 285.4 197.006 285.4C197.006 285.4 197.006 285.4 197.006 285.4C197.006 285.4 197.006 285.4 197.006 285.4C197.006 285.4 197.006 285.4 197.006 285.4C197.006 285.4 197.006 285.4 197.006 285.4C197.006 285.4 197.006 285.4 197.006 285.4C197.006 285.4 197.006 285.4 197.006 285.4C197.006 285.4 197.006 285.4 197.006 285.4C197.006 285.4 197.006 285.4 197.006 285.4C197.006 285.4 197.006 285.4 197.006 285.4C197.006 285.4 197.006 285.4 197.006 285.4C197.005 285.4 197.005 285.4 197.005 285.4C197.005 285.4 197.005 285.4 197.005 285.4C197.005 285.4 197.005 285.4 197.005 285.4C197.005 285.4 197.005 285.4 197.005 285.4C197.005 285.4 197.005 285.4 197.005 285.4C197.005 285.4 197.005 285.4 197.005 285.4C197.005 285.4 197.005 285.4 197.005 285.4C197.005 285.4 197.005 285.4 197.005 285.4C197.005 285.4 197.005 285.4 197.005 285.4C197.005 285.4 197.005 285.4 197.005 285.4C197.005 285.4 197.005 285.4 197.005 285.4C197.005 285.4 197.005 285.4 197.005 285.4C197.005 285.4 197.005 285.4 197.005 285.4C197.005 285.4 197.005 285.4 197.005 285.4C197.005 285.4 197.005 285.4 197.005 285.4C197.005 285.4 197.005 285.4 197.005 285.4C197.005 285.4 197.005 285.4 197.005 285.4C197.005 285.4 197.005 285.4 197.005 285.4C197.005 285.4 197.005 285.4 197.005 285.4C197.005 285.4 197.005 285.4 197.005 285.4C197.005 285.4 197.005 285.4 197.005 285.4C197.005 285.4 197.005 285.4 197.005 285.4C197.005 285.4 197.005 285.4 197.005 285.4C197.005 285.4 197.005 285.4 197.005 285.4C197.005 285.4 197.005 285.4 197.005 285.4C197.005 285.4 197.005 285.4 197.005 285.4C197.005 285.4 197.005 285.4 197.005 285.4C197.005 285.4 197.005 285.4 197.005 285.4C197.005 285.4 197.005 285.4 197.005 285.4C197.005 285.4 197.005 285.4 197.005 285.4C197.005 285.4 197.005 285.4 197.005 285.4C197.005 285.4 197.005 285.4 197.005 285.4C197.005 285.4 197.005 285.4 197.005 285.4C197.005 285.4 197.005 285.4 197.005 285.4C197.005 285.4 197.005 285.4 197.005 285.4C197.005 285.4 197.005 285.4 197.005 285.4C197.005 285.4 197.005 285.4 197.005 285.4C197.005 285.4 197.005 285.4 197.005 285.4C197.005 285.4 197.005 285.4 197.005 285.4C197.005 285.4 197.005 285.4 197.005 285.4C197.005 285.4 197.005 285.4 197.005 285.4C197.005 285.4 197.005 285.4 197.005 285.4C197.005 285.4 197.005 285.4 197.005 285.4C197.005 285.4 197.005 285.4 197.005 285.4C197.005 285.4 197.005 285.4 197.005 285.4C197.005 285.4 197.005 285.4 197.005 285.4C197.005 285.4 197.005 285.4 197.005 285.4C197.005 285.4 197.005 285.4 197.005 285.4C197.005 285.4 197.005 285.4 197.004 285.4C197.004 285.4 197.004 285.4 197.004 285.4C197.004 285.4 197.004 285.4 197.004 285.4C197.004 285.4 197.004 285.4 197.004 285.4C197.004 285.4 197.004 285.4 197.004 285.4C197.004 285.4 197.004 285.4 197.004 285.4C197.004 285.4 197.004 285.4 197.004 285.4C197.004 285.4 197.004 285.4 197.004 285.4C197.004 285.4 197.004 285.4 197.004 285.4C197.004 285.4 197.004 285.4 197.004 285.4C197.004 285.4 197.004 285.4 197.004 285.4C197.004 285.4 197.004 285.4 197.004 285.4C197.004 285.4 197.004 285.4 197.004 285.4C197.004 285.4 197.004 285.4 197.004 285.4C197.004 285.4 197.004 285.4 197.004 285.4C197.004 285.4 197.004 285.4 197.004 285.4C197.004 285.4 197.004 285.4 197.004 285.4C197.004 285.4 197.004 285.4 197.004 285.4C197.004 285.4 197.004 285.4 197.004 285.4C197.004 285.4 197.004 285.4 197.004 285.4C197.004 285.4 197.004 285.4 197.004 285.4C197.004 285.4 197.004 285.4 197.004 285.4C197.004 285.4 197.004 285.4 197.004 285.4C197.004 285.4 197.004 285.4 197.004 285.4C197.004 285.4 197.004 285.4 197.004 285.4C197.004 285.4 197.004 285.4 197.004 285.4C197.004 285.4 197.004 285.4 197.004 285.4C197.004 285.4 197.004 285.4 197.004 285.4C197.004 285.4 197.004 285.4 197.004 285.4C197.004 285.4 197.004 285.4 197.004 285.4C197.004 285.4 197.004 285.4 197.004 285.4C197.004 285.4 197.004 285.4 197.004 285.4C197.004 285.4 197.004 285.4 197.004 285.4C197.004 285.4 197.004 285.4 197.004 285.4C197.004 285.4 197.004 285.4 197.004 285.4C197.004 285.4 197.004 285.4 197.004 285.4C197.004 285.4 197.004 285.4 197.004 285.4C197.004 285.4 197.004 285.4 197.004 285.4C197.004 285.4 197.004 285.4 197.004 285.4C197.004 285.4 197.004 285.4 197.004 285.4C197.004 285.4 197.004 285.4 197.004 285.4C197.004 285.4 197.004 285.4 197.004 285.4C197.004 285.4 197.004 285.4 197.004 285.4C197.004 285.4 197.004 285.4 197.004 285.4C197.004 285.4 197.004 285.4 197.004 285.4C197.004 285.4 197.004 285.4 197.004 285.4C197.004 285.4 197.004 285.4 197.004 285.4C197.004 285.4 197.004 285.4 197.004 285.4C197.004 285.4 197.004 285.4 197.004 285.4C197.004 285.4 197.003 285.4 197.003 285.4C197.003 285.4 197.003 285.4 197.003 285.4C197.003 285.4 197.003 285.4 197.003 285.4C197.003 285.4 197.003 285.4 197.003 285.4C197.003 285.4 197.003 285.4 197.003 285.4C197.003 285.4 197.003 285.4 197.003 285.4C197.003 285.4 197.003 285.4 197.003 285.4C197.003 285.4 197.003 285.4 197.003 285.4C197.003 285.4 197.003 285.4 197.003 285.4C197.003 285.4 197.003 285.4 197.003 285.4C197.003 285.4 197.003 285.4 197.003 285.4C197.003 285.4 197.003 285.4 197.003 285.4C197.003 285.4 197.003 285.4 197.003 285.4C197.003 285.4 197.003 285.4 197.003 285.4C197.003 285.4 197.003 285.4 197.003 285.4C197.003 285.4 197.003 285.4 197.003 285.4C197.003 285.4 197.003 285.4 197.003 285.4C197.003 285.4 197.003 285.4 197.003 285.4C197.003 285.4 197.003 285.4 197.003 285.4C197.003 285.4 197.003 285.4 197.003 285.4C197.003 285.4 197.003 285.4 197.003 285.4C197.003 285.4 197.003 285.4 197.003 285.4C197.003 285.4 197.003 285.4 197.003 285.4C197.003 285.4 197.003 285.4 197.003 285.4C197.003 285.4 197.003 285.4 197.003 285.4C197.003 285.4 197.003 285.4 197.003 285.4C197.003 285.4 197.003 285.4 197.003 285.4C197.003 285.4 197.003 285.4 197.003 285.4C197.003 285.4 197.003 285.4 197.003 285.4C197.003 285.4 197.003 285.4 197.003 285.4C197.003 285.4 197.003 285.4 197.003 285.4C197.003 285.4 197.003 285.4 197.003 285.4C197.003 285.4 197.003 285.4 197.003 285.4C197.003 285.4 197.003 285.4 197.003 285.4C197.003 285.4 197.003 285.4 197.003 285.4C197.003 285.4 197.003 285.4 197.003 285.4C197.003 285.4 197.003 285.4 197.003 285.4C197.003 285.4 197.003 285.4 197.003 285.4C197.003 285.4 197.003 285.4 197.003 285.4C197.003 285.4 197.003 285.4 197.003 285.4C197.003 285.4 197.003 285.4 197.003 285.4C197.003 285.4 197.003 285.4 197.003 285.4C197.003 285.4 197.003 285.4 197.003 285.4C197.003 285.4 197.003 285.4 197.003 285.4C197.003 285.4 197.003 285.4 197.003 285.4C197.003 285.4 197.003 285.4 197.003 285.4C197.003 285.4 197.003 285.4 197.003 285.4C197.003 285.4 197.003 285.4 197.003 285.4C197.003 285.4 197.003 285.4 197.003 285.4C197.002 285.4 197.002 285.4 197.002 285.4C197.002 285.4 197.002 285.4 197.002 285.4C197.002 285.4 197.002 285.4 197.002 285.4C197.002 285.4 197.002 285.4 197.002 285.4C197.002 285.4 197.002 285.4 197.002 285.4C197.002 285.4 197.002 285.4 197.002 285.4C197.002 285.4 197.002 285.4 197.002 285.4C197.002 285.4 197.002 285.4 197.002 285.4C197.002 285.4 197.002 285.4 197.002 285.4C197.002 285.4 197.002 285.4 197.002 285.4C197.002 285.4 197.002 285.4 197.002 285.4C197.002 285.4 197.002 285.4 197.002 285.4C197.002 285.4 197.002 285.4 197.002 285.4C197.002 285.4 197.002 285.4 197.002 285.4C197.002 285.4 197.002 285.4 197.002 285.4C197.002 285.4 197.002 285.4 197.002 285.4C197.002 285.4 197.002 285.4 197.002 285.4C197.002 285.4 197.002 285.4 197.002 285.4C197.002 285.4 197.002 285.4 197.002 285.4C197.002 285.4 197.002 285.4 197.002 285.4C197.002 285.4 197.002 285.4 197.002 285.4C197.002 285.4 197.002 285.4 197.002 285.4C197.002 285.4 197.002 285.4 197.002 285.4C197.002 285.4 197.002 285.4 197.002 285.4C197.002 285.4 197.002 285.4 197.002 285.4C197.002 285.4 197.002 285.4 197.002 285.4C197.002 285.4 197.002 285.4 197.002 285.4C197.002 285.4 197.002 285.4 197.002 285.4C197.002 285.4 197.002 285.4 197.002 285.4C197.002 285.4 197.002 285.4 197.002 285.4C197.002 285.4 197.002 285.4 197.002 285.4C197.002 285.4 197.002 285.4 197.002 285.4C197.002 285.4 197.002 285.4 197.002 285.4C197.002 285.4 197.002 285.4 197.002 285.4C197.002 285.4 197.002 285.4 197.002 285.4C197.002 285.4 197.002 285.4 197.002 285.4C197.002 285.4 197.002 285.4 197.002 285.4C197.002 285.4 197.002 285.4 197.002 285.4C197.002 285.4 197.002 285.4 197.002 285.4C197.002 285.4 197.002 285.4 197.002 285.4C197.002 285.4 197.002 285.4 197.002 285.4C197.002 285.4 197.002 285.4 197.002 285.4C197.002 285.4 197.002 285.4 197.002 285.4C197.002 285.4 197.002 285.4 197.002 285.4C197.002 285.4 197.002 285.4 197.002 285.4C197.002 285.4 197.002 285.4 197.002 285.4C197.002 285.4 197.002 285.4 197.002 285.4C197.002 285.4 197.002 285.4 197.002 285.4C197.002 285.4 197.002 285.4 197.002 285.4C197.001 285.4 197.001 285.4 197.001 285.4C197.001 285.4 197.001 285.4 197.001 285.4C197.001 285.4 197.001 285.4 197.001 285.4C197.001 285.4 197.001 285.4 197.001 285.4C197.001 285.4 197.001 285.4 197.001 285.4C197.001 285.4 197.001 285.4 197.001 285.4C197.001 285.4 197.001 285.4 197.001 285.4C197.001 285.4 197.001 285.4 197.001 285.4C197.001 285.4 197.001 285.4 197.001 285.4C197.001 285.4 197.001 285.4 197.001 285.4C197.001 285.4 197.001 285.4 197.001 285.4C197.001 285.4 197.001 285.4 197.001 285.4C197.001 285.4 197.001 285.4 197.001 285.4C197.001 285.4 197.001 285.4 197.001 285.4C197.001 285.4 197.001 285.4 197.001 285.4C197.001 285.4 197.001 285.4 197.001 285.4C197.001 285.4 197.001 285.4 197.001 285.4C197.001 285.4 197.001 285.4 197.001 285.4C197.001 285.4 197.001 285.4 197.001 285.4C197.001 285.4 197.001 285.4 197.001 285.4C197.001 285.4 197.001 285.4 197.001 285.4C197.001 285.4 197.001 285.4 197.001 285.4C197.001 285.4 197.001 285.4 197.001 285.4C197.001 285.4 197.001 285.4 197.001 285.4C197.001 285.4 197.001 285.4 197.001 285.4C197.001 285.4 197.001 285.4 197.001 285.4C197.001 285.4 197.001 285.4 197.001 285.4C197.001 285.4 197.001 285.4 197.001 285.4C197.001 285.4 197.001 285.4 197.001 285.4C197.001 285.4 197.001 285.4 197.001 285.4C197.001 285.4 197.001 285.4 197.001 285.4C197.001 285.4 197.001 285.4 197.001 285.4C197.001 285.4 197.001 285.4 197.001 285.4C197.001 285.4 197.001 285.4 197.001 285.4C197.001 285.4 197.001 285.4 197.001 285.4C197.001 285.4 197.001 285.4 197.001 285.4C197.001 285.4 197.001 285.4 197.001 285.4C197.001 285.4 197.001 285.4 197.001 285.4C197.001 285.4 197.001 285.4 197.001 285.4C197.001 285.4 197.001 285.4 197.001 285.4C197.001 285.4 197.001 285.4 197.001 285.4C197.001 285.4 197.001 285.4 197.001 285.4C197.001 285.4 197.001 285.4 197.001 285.4C197.001 285.4 197.001 285.4 197.001 285.4C197.001 285.4 197.001 285.4 197.001 285.4C197.001 285.4 197.001 285.4 197.001 285.4C197.001 285.4 197.001 285.4 197.001 285.4C197.001 285.4 197.001 285.4 197.001 285.4C197.001 285.4 197.001 285.4 197 285.4C197 285.4 197 285.4 197 285.4C197 285.4 197 285.4 197 285.4C197 285.4 197 285.4 197 285.4C197 285.4 197 285.4 197 285.4C197 285.4 197 285.4 197 285.4C197 285.4 197 285.4 197 285.4C197 285.4 197 285.4 197 285.4C197 285.4 197 285.4 197 285.4C197 285.4 197 285.4 197 285.4C197 285.4 197 285.4 197 285.4C197 285.4 197 285.4 197 285.4C197 285.4 197 285.4 197 285.4C197 285.4 197 285.4 197 285.4C197 285.4 197 285.4 197 285.4C197 285.4 197 285.4 197 285.4C197 285.4 197 285.4 197 285.4C197 285.4 197 285.4 197 285.4C197 285.4 197 285.4 197 285.4C197 285.4 197 285.4 197 285.4C197 285.4 197 285.4 197 285.4C197 285.4 197 285.4 197 285.4C197 285.4 197 285.4 197 285.4C197 285.4 197 285.4 197 285.4C197 285.4 197 285.4 197 285.4V292.2C197 292.2 197 292.2 197 292.2C197 292.2 197 292.2 197 292.2C197 292.2 197 292.2 197 292.2C197 292.2 197 292.2 197 292.2C197 292.2 197 292.2 197 292.2C197 292.2 197 292.2 197 292.2C197 292.2 197 292.2 197 292.2C197 292.2 197 292.2 197 292.2C197 292.2 197 292.2 197 292.2C197 292.2 197 292.2 197 292.2C197 292.2 197 292.2 197 292.2C197 292.2 197 292.2 197 292.2C197 292.2 197 292.2 197 292.2C197 292.2 197 292.2 197 292.2C197 292.2 197 292.2 197 292.2C197 292.2 197 292.2 197 292.2C197 292.2 197 292.2 197 292.2C197 292.2 197 292.2 197 292.2C197 292.2 197 292.2 197 292.2C197 292.2 197 292.2 197 292.2C197 292.2 197 292.2 197 292.2C197 292.2 197 292.2 197 292.2C197 292.2 197 292.2 197 292.2C197 292.2 197 292.2 197 292.2C197.001 292.2 197.001 292.2 197.001 292.2C197.001 292.2 197.001 292.2 197.001 292.2C197.001 292.2 197.001 292.2 197.001 292.2C197.001 292.2 197.001 292.2 197.001 292.2C197.001 292.2 197.001 292.2 197.001 292.2C197.001 292.2 197.001 292.2 197.001 292.2C197.001 292.2 197.001 292.2 197.001 292.2C197.001 292.2 197.001 292.2 197.001 292.2C197.001 292.2 197.001 292.2 197.001 292.2C197.001 292.2 197.001 292.2 197.001 292.2C197.001 292.2 197.001 292.2 197.001 292.2C197.001 292.2 197.001 292.2 197.001 292.2C197.001 292.2 197.001 292.2 197.001 292.2C197.001 292.2 197.001 292.2 197.001 292.2C197.001 292.2 197.001 292.2 197.001 292.2C197.001 292.2 197.001 292.2 197.001 292.2C197.001 292.2 197.001 292.2 197.001 292.2C197.001 292.2 197.001 292.2 197.001 292.2C197.001 292.2 197.001 292.2 197.001 292.2C197.001 292.2 197.001 292.2 197.001 292.2C197.001 292.2 197.001 292.2 197.001 292.2C197.001 292.2 197.001 292.2 197.001 292.2C197.001 292.2 197.001 292.2 197.001 292.2C197.001 292.2 197.001 292.2 197.001 292.2C197.001 292.2 197.001 292.2 197.001 292.2C197.001 292.2 197.001 292.2 197.001 292.2C197.001 292.2 197.001 292.2 197.001 292.2C197.001 292.2 197.001 292.2 197.001 292.2C197.001 292.2 197.001 292.2 197.001 292.2C197.001 292.2 197.001 292.2 197.001 292.2C197.001 292.2 197.001 292.2 197.001 292.2C197.001 292.2 197.001 292.2 197.001 292.2C197.001 292.2 197.001 292.2 197.001 292.2C197.001 292.2 197.001 292.2 197.001 292.2C197.001 292.2 197.001 292.2 197.001 292.2C197.001 292.2 197.001 292.2 197.001 292.2C197.001 292.2 197.001 292.2 197.001 292.2C197.001 292.2 197.001 292.2 197.001 292.2C197.001 292.2 197.001 292.2 197.001 292.2C197.001 292.2 197.001 292.2 197.001 292.2C197.001 292.2 197.001 292.2 197.001 292.2C197.001 292.2 197.001 292.2 197.001 292.2C197.001 292.2 197.001 292.2 197.001 292.2C197.001 292.2 197.001 292.2 197.001 292.2C197.001 292.2 197.001 292.2 197.001 292.2C197.001 292.2 197.001 292.2 197.001 292.2C197.001 292.2 197.001 292.2 197.001 292.2C197.001 292.2 197.001 292.2 197.001 292.2C197.001 292.2 197.001 292.2 197.002 292.2C197.002 292.2 197.002 292.2 197.002 292.2C197.002 292.2 197.002 292.2 197.002 292.2C197.002 292.2 197.002 292.2 197.002 292.2C197.002 292.2 197.002 292.2 197.002 292.2C197.002 292.2 197.002 292.2 197.002 292.2C197.002 292.2 197.002 292.2 197.002 292.2C197.002 292.2 197.002 292.2 197.002 292.2C197.002 292.2 197.002 292.2 197.002 292.2C197.002 292.2 197.002 292.2 197.002 292.2C197.002 292.2 197.002 292.2 197.002 292.2C197.002 292.2 197.002 292.2 197.002 292.2C197.002 292.2 197.002 292.2 197.002 292.2C197.002 292.2 197.002 292.2 197.002 292.2C197.002 292.2 197.002 292.2 197.002 292.2C197.002 292.2 197.002 292.2 197.002 292.2C197.002 292.2 197.002 292.2 197.002 292.2C197.002 292.2 197.002 292.2 197.002 292.2C197.002 292.2 197.002 292.2 197.002 292.2C197.002 292.2 197.002 292.2 197.002 292.2C197.002 292.2 197.002 292.2 197.002 292.2C197.002 292.2 197.002 292.2 197.002 292.2C197.002 292.2 197.002 292.2 197.002 292.2C197.002 292.2 197.002 292.2 197.002 292.2C197.002 292.2 197.002 292.2 197.002 292.2C197.002 292.2 197.002 292.2 197.002 292.2C197.002 292.2 197.002 292.2 197.002 292.2C197.002 292.2 197.002 292.2 197.002 292.2C197.002 292.2 197.002 292.2 197.002 292.2C197.002 292.2 197.002 292.2 197.002 292.2C197.002 292.2 197.002 292.2 197.002 292.2C197.002 292.2 197.002 292.2 197.002 292.2C197.002 292.2 197.002 292.2 197.002 292.2C197.002 292.2 197.002 292.2 197.002 292.2C197.002 292.2 197.002 292.2 197.002 292.2C197.002 292.2 197.002 292.2 197.002 292.2C197.002 292.2 197.002 292.2 197.002 292.2C197.002 292.2 197.002 292.2 197.002 292.2C197.002 292.2 197.002 292.2 197.002 292.2C197.002 292.2 197.002 292.2 197.002 292.2C197.002 292.2 197.002 292.2 197.002 292.2C197.002 292.2 197.002 292.2 197.002 292.2C197.002 292.2 197.002 292.2 197.002 292.2C197.002 292.2 197.002 292.2 197.002 292.2C197.002 292.2 197.002 292.2 197.002 292.2C197.002 292.2 197.002 292.2 197.002 292.2C197.002 292.2 197.002 292.2 197.002 292.2C197.002 292.2 197.002 292.2 197.002 292.2C197.002 292.2 197.002 292.2 197.002 292.2C197.002 292.2 197.002 292.2 197.003 292.2C197.003 292.2 197.003 292.2 197.003 292.2C197.003 292.2 197.003 292.2 197.003 292.2C197.003 292.2 197.003 292.2 197.003 292.2C197.003 292.2 197.003 292.2 197.003 292.2C197.003 292.2 197.003 292.2 197.003 292.2C197.003 292.2 197.003 292.2 197.003 292.2C197.003 292.2 197.003 292.2 197.003 292.2C197.003 292.2 197.003 292.2 197.003 292.2C197.003 292.2 197.003 292.2 197.003 292.2C197.003 292.2 197.003 292.2 197.003 292.2C197.003 292.2 197.003 292.2 197.003 292.2C197.003 292.2 197.003 292.2 197.003 292.2C197.003 292.2 197.003 292.2 197.003 292.2C197.003 292.2 197.003 292.2 197.003 292.2C197.003 292.2 197.003 292.2 197.003 292.2C197.003 292.2 197.003 292.2 197.003 292.2C197.003 292.2 197.003 292.2 197.003 292.2C197.003 292.2 197.003 292.2 197.003 292.2C197.003 292.2 197.003 292.2 197.003 292.2C197.003 292.2 197.003 292.2 197.003 292.2C197.003 292.2 197.003 292.2 197.003 292.2C197.003 292.2 197.003 292.2 197.003 292.2C197.003 292.2 197.003 292.2 197.003 292.2C197.003 292.2 197.003 292.2 197.003 292.2C197.003 292.2 197.003 292.2 197.003 292.2C197.003 292.2 197.003 292.2 197.003 292.2C197.003 292.2 197.003 292.2 197.003 292.2C197.003 292.2 197.003 292.2 197.003 292.2C197.003 292.2 197.003 292.2 197.003 292.2C197.003 292.2 197.003 292.2 197.003 292.2C197.003 292.2 197.003 292.2 197.003 292.2C197.003 292.2 197.003 292.2 197.003 292.2C197.003 292.2 197.003 292.2 197.003 292.2C197.003 292.2 197.003 292.2 197.003 292.2C197.003 292.2 197.003 292.2 197.003 292.2C197.003 292.2 197.003 292.2 197.003 292.2C197.003 292.2 197.003 292.2 197.003 292.2C197.003 292.2 197.003 292.2 197.003 292.2C197.003 292.2 197.003 292.2 197.003 292.2C197.003 292.2 197.003 292.2 197.003 292.2C197.003 292.2 197.003 292.2 197.003 292.2C197.003 292.2 197.003 292.2 197.003 292.2C197.003 292.2 197.003 292.2 197.003 292.2C197.003 292.2 197.003 292.2 197.003 292.2C197.003 292.2 197.003 292.2 197.003 292.2C197.003 292.2 197.003 292.2 197.003 292.2C197.003 292.2 197.003 292.2 197.003 292.2C197.003 292.2 197.003 292.2 197.003 292.2C197.003 292.2 197.004 292.2 197.004 292.2C197.004 292.2 197.004 292.2 197.004 292.2C197.004 292.2 197.004 292.2 197.004 292.2C197.004 292.2 197.004 292.2 197.004 292.2C197.004 292.2 197.004 292.2 197.004 292.2C197.004 292.2 197.004 292.2 197.004 292.2C197.004 292.2 197.004 292.2 197.004 292.2C197.004 292.2 197.004 292.2 197.004 292.2C197.004 292.2 197.004 292.2 197.004 292.2C197.004 292.2 197.004 292.2 197.004 292.2C197.004 292.2 197.004 292.2 197.004 292.2C197.004 292.2 197.004 292.2 197.004 292.2C197.004 292.2 197.004 292.2 197.004 292.2C197.004 292.2 197.004 292.2 197.004 292.2C197.004 292.2 197.004 292.2 197.004 292.2C197.004 292.2 197.004 292.2 197.004 292.2C197.004 292.2 197.004 292.2 197.004 292.2C197.004 292.2 197.004 292.2 197.004 292.2C197.004 292.2 197.004 292.2 197.004 292.2C197.004 292.2 197.004 292.2 197.004 292.2C197.004 292.2 197.004 292.2 197.004 292.2C197.004 292.2 197.004 292.2 197.004 292.2C197.004 292.2 197.004 292.2 197.004 292.2C197.004 292.2 197.004 292.2 197.004 292.2C197.004 292.2 197.004 292.2 197.004 292.2C197.004 292.2 197.004 292.2 197.004 292.2C197.004 292.2 197.004 292.2 197.004 292.2C197.004 292.2 197.004 292.2 197.004 292.2C197.004 292.2 197.004 292.2 197.004 292.2C197.004 292.2 197.004 292.2 197.004 292.2C197.004 292.2 197.004 292.2 197.004 292.2C197.004 292.2 197.004 292.2 197.004 292.2C197.004 292.2 197.004 292.2 197.004 292.2C197.004 292.2 197.004 292.2 197.004 292.2C197.004 292.2 197.004 292.2 197.004 292.2C197.004 292.2 197.004 292.2 197.004 292.2C197.004 292.2 197.004 292.2 197.004 292.2C197.004 292.2 197.004 292.2 197.004 292.2C197.004 292.2 197.004 292.2 197.004 292.2C197.004 292.2 197.004 292.2 197.004 292.2C197.004 292.2 197.004 292.2 197.004 292.2C197.004 292.2 197.004 292.2 197.004 292.2C197.004 292.2 197.004 292.2 197.004 292.2C197.004 292.2 197.004 292.2 197.004 292.2C197.004 292.2 197.004 292.2 197.004 292.2C197.004 292.2 197.004 292.2 197.004 292.2C197.004 292.2 197.004 292.2 197.004 292.2C197.004 292.2 197.004 292.2 197.004 292.2C197.004 292.2 197.004 292.2 197.004 292.2C197.005 292.2 197.005 292.2 197.005 292.2C197.005 292.2 197.005 292.2 197.005 292.2C197.005 292.2 197.005 292.2 197.005 292.2C197.005 292.2 197.005 292.2 197.005 292.2C197.005 292.2 197.005 292.2 197.005 292.2C197.005 292.2 197.005 292.2 197.005 292.2C197.005 292.2 197.005 292.2 197.005 292.2C197.005 292.2 197.005 292.2 197.005 292.2C197.005 292.2 197.005 292.2 197.005 292.2C197.005 292.2 197.005 292.2 197.005 292.2C197.005 292.2 197.005 292.2 197.005 292.2C197.005 292.2 197.005 292.2 197.005 292.2C197.005 292.2 197.005 292.2 197.005 292.2C197.005 292.2 197.005 292.2 197.005 292.2C197.005 292.2 197.005 292.2 197.005 292.2C197.005 292.2 197.005 292.2 197.005 292.2C197.005 292.2 197.005 292.2 197.005 292.2C197.005 292.2 197.005 292.2 197.005 292.2C197.005 292.2 197.005 292.2 197.005 292.2C197.005 292.2 197.005 292.2 197.005 292.2C197.005 292.2 197.005 292.2 197.005 292.2C197.005 292.2 197.005 292.2 197.005 292.2C197.005 292.2 197.005 292.2 197.005 292.2C197.005 292.2 197.005 292.2 197.005 292.2C197.005 292.2 197.005 292.2 197.005 292.2C197.005 292.2 197.005 292.2 197.005 292.2C197.005 292.2 197.005 292.2 197.005 292.2C197.005 292.2 197.005 292.2 197.005 292.2C197.005 292.2 197.005 292.2 197.005 292.2C197.005 292.2 197.005 292.2 197.005 292.2C197.005 292.2 197.005 292.2 197.005 292.2C197.005 292.2 197.005 292.2 197.005 292.2C197.005 292.2 197.005 292.2 197.005 292.2C197.005 292.2 197.005 292.2 197.005 292.2C197.005 292.2 197.005 292.2 197.005 292.2C197.005 292.2 197.005 292.2 197.005 292.2C197.005 292.2 197.005 292.2 197.005 292.2C197.005 292.2 197.005 292.2 197.005 292.2C197.005 292.2 197.005 292.2 197.005 292.2C197.005 292.2 197.005 292.2 197.005 292.2C197.005 292.2 197.005 292.2 197.005 292.2C197.005 292.2 197.005 292.2 197.005 292.2C197.005 292.2 197.005 292.2 197.005 292.2C197.005 292.2 197.005 292.2 197.005 292.2C197.005 292.2 197.005 292.2 197.005 292.2C197.005 292.2 197.005 292.2 197.005 292.2C197.005 292.2 197.005 292.2 197.005 292.2C197.005 292.2 197.005 292.2 197.005 292.2C197.005 292.2 197.005 292.2 197.006 292.2C197.006 292.2 197.006 292.2 197.006 292.2C197.006 292.2 197.006 292.2 197.006 292.2C197.006 292.2 197.006 292.2 197.006 292.2C197.006 292.2 197.006 292.2 197.006 292.2C197.006 292.2 197.006 292.2 197.006 292.2C197.006 292.2 197.006 292.2 197.006 292.2C197.006 292.2 197.006 292.2 197.006 292.2C197.006 292.2 197.006 292.2 197.006 292.2C197.006 292.2 197.006 292.2 197.006 292.2C197.006 292.2 197.006 292.2 197.006 292.2C197.006 292.2 197.006 292.2 197.006 292.2C197.006 292.2 197.006 292.2 197.006 292.2C197.006 292.2 197.006 292.2 197.006 292.2C197.006 292.2 197.006 292.2 197.006 292.2C197.006 292.2 197.006 292.2 197.006 292.2C197.006 292.2 197.006 292.2 197.006 292.2C197.006 292.2 197.006 292.2 197.006 292.2C197.006 292.2 197.006 292.2 197.006 292.2C197.006 292.2 197.006 292.2 197.006 292.2C197.006 292.2 197.006 292.2 197.006 292.2C197.006 292.2 197.006 292.2 197.006 292.2C197.006 292.2 197.006 292.2 197.006 292.2C197.006 292.2 197.006 292.2 197.006 292.2C197.006 292.2 197.006 292.2 197.006 292.2C197.006 292.2 197.006 292.2 197.006 292.2C197.006 292.2 197.006 292.2 197.006 292.2C197.006 292.2 197.006 292.2 197.006 292.2C197.006 292.2 197.006 292.2 197.006 292.2C197.006 292.2 197.006 292.2 197.006 292.2C197.006 292.2 197.006 292.2 197.006 292.2C197.006 292.2 197.006 292.2 197.006 292.2C197.006 292.2 197.006 292.2 197.006 292.2C197.006 292.2 197.006 292.2 197.006 292.2C197.006 292.2 197.006 292.2 197.006 292.2C197.006 292.2 197.006 292.2 197.006 292.2C197.006 292.2 197.006 292.2 197.006 292.2C197.006 292.2 197.006 292.2 197.006 292.2C197.006 292.2 197.006 292.2 197.006 292.2C197.006 292.2 197.006 292.2 197.006 292.2C197.006 292.2 197.006 292.2 197.006 292.2C197.006 292.2 197.006 292.2 197.006 292.2C197.006 292.2 197.006 292.2 197.006 292.2C197.006 292.2 197.006 292.2 197.006 292.2C197.006 292.2 197.006 292.2 197.006 292.2C197.006 292.2 197.006 292.2 197.006 292.2C197.006 292.2 197.006 292.2 197.006 292.2C197.006 292.2 197.006 292.2 197.006 292.2C197.006 292.2 197.006 292.2 197.006 292.2C197.006 292.2 197.007 292.2 197.007 292.2C197.007 292.2 197.007 292.2 197.007 292.2C197.007 292.2 197.007 292.2 197.007 292.2C197.007 292.2 197.007 292.2 197.007 292.2C197.007 292.2 197.007 292.2 197.007 292.2C197.007 292.2 197.007 292.2 197.007 292.2C197.007 292.2 197.007 292.2 197.007 292.2C197.007 292.2 197.007 292.2 197.007 292.2C197.007 292.2 197.007 292.2 197.007 292.2C197.007 292.2 197.007 292.2 197.007 292.2C197.007 292.2 197.007 292.2 197.007 292.2C197.007 292.2 197.007 292.2 197.007 292.2C197.007 292.2 197.007 292.2 197.007 292.2C197.007 292.2 197.007 292.2 197.007 292.2C197.007 292.2 197.007 292.2 197.007 292.2C197.007 292.2 197.007 292.2 197.007 292.2C197.007 292.2 197.007 292.2 197.007 292.2C197.007 292.2 197.007 292.2 197.007 292.2C197.007 292.2 197.007 292.2 197.007 292.2C197.007 292.2 197.007 292.2 197.007 292.2C197.007 292.2 197.007 292.2 197.007 292.2C197.007 292.2 197.007 292.2 197.007 292.2C197.007 292.2 197.007 292.2 197.007 292.2C197.007 292.2 197.007 292.2 197.007 292.2C197.007 292.2 197.007 292.2 197.007 292.2C197.007 292.2 197.007 292.2 197.007 292.2C197.007 292.2 197.007 292.2 197.007 292.2C197.007 292.2 197.007 292.2 197.007 292.2C197.007 292.2 197.007 292.2 197.007 292.2C197.007 292.2 197.007 292.2 197.007 292.2C197.007 292.2 197.007 292.2 197.007 292.2C197.007 292.2 197.007 292.2 197.007 292.2C197.007 292.2 197.007 292.2 197.007 292.2C197.007 292.2 197.007 292.2 197.007 292.2C197.007 292.2 197.007 292.2 197.007 292.2C197.007 292.2 197.007 292.2 197.007 292.2C197.007 292.2 197.007 292.2 197.007 292.2C197.007 292.2 197.007 292.2 197.007 292.2C197.007 292.2 197.007 292.2 197.007 292.2C197.007 292.2 197.007 292.2 197.007 292.2C197.007 292.2 197.007 292.2 197.007 292.2C197.007 292.2 197.007 292.2 197.007 292.2C197.007 292.2 197.007 292.2 197.007 292.2C197.007 292.2 197.007 292.2 197.007 292.2C197.007 292.2 197.007 292.2 197.007 292.2C197.007 292.2 197.007 292.2 197.007 292.2C197.007 292.2 197.007 292.2 197.007 292.2C197.007 292.2 197.007 292.2 197.007 292.2C197.007 292.2 197.007 292.2 197.007 292.2C197.007 292.2 197.008 292.2 197.008 292.2C197.008 292.2 197.008 292.2 197.008 292.2C197.008 292.2 197.008 292.2 197.008 292.2C197.008 292.2 197.008 292.2 197.008 292.2C197.008 292.2 197.008 292.2 197.008 292.2C197.008 292.2 197.008 292.2 197.008 292.2C197.008 292.2 197.008 292.2 197.008 292.2C197.008 292.2 197.008 292.2 197.008 292.2C197.008 292.2 197.008 292.2 197.008 292.2C197.008 292.2 197.008 292.2 197.008 292.2C197.008 292.2 197.008 292.2 197.008 292.2C197.008 292.2 197.008 292.2 197.008 292.2C197.008 292.2 197.008 292.2 197.008 292.2C197.008 292.2 197.008 292.2 197.008 292.2C197.008 292.2 197.008 292.2 197.008 292.2C197.008 292.2 197.008 292.2 197.008 292.2C197.008 292.2 197.008 292.2 197.008 292.2C197.008 292.2 197.008 292.2 197.008 292.2C197.008 292.2 197.008 292.2 197.008 292.2C197.008 292.2 197.008 292.2 197.008 292.2C197.008 292.2 197.008 292.2 197.008 292.2C197.008 292.2 197.008 292.2 197.008 292.2C197.008 292.2 197.008 292.2 197.008 292.2C197.008 292.2 197.008 292.2 197.008 292.2C197.008 292.2 197.008 292.2 197.008 292.2C197.008 292.2 197.008 292.2 197.008 292.2C197.008 292.2 197.008 292.2 197.008 292.2C197.008 292.2 197.008 292.2 197.008 292.2C197.008 292.2 197.008 292.2 197.008 292.2C197.008 292.2 197.008 292.2 197.008 292.2C197.008 292.2 197.008 292.2 197.008 292.2C197.008 292.2 197.008 292.2 197.008 292.2C197.008 292.2 197.008 292.2 197.008 292.2C197.008 292.2 197.008 292.2 197.008 292.2C197.008 292.2 197.008 292.2 197.008 292.2C197.008 292.2 197.008 292.2 197.008 292.2C197.008 292.2 197.008 292.2 197.008 292.2C197.008 292.2 197.008 292.2 197.008 292.2C197.008 292.2 197.008 292.2 197.008 292.2C197.008 292.2 197.008 292.2 197.008 292.2C197.008 292.2 197.008 292.2 197.008 292.2C197.008 292.2 197.008 292.2 197.008 292.2C197.008 292.2 197.008 292.2 197.008 292.2C197.008 292.2 197.008 292.2 197.008 292.2C197.008 292.2 197.008 292.2 197.008 292.2C197.008 292.2 197.008 292.2 197.008 292.2C197.008 292.2 197.008 292.2 197.008 292.2C197.008 292.2 197.008 292.2 197.008 292.2C197.008 292.2 197.008 292.2 197.008 292.2C197.009 292.2 197.009 292.2 197.009 292.2C197.009 292.2 197.009 292.2 197.009 292.2C197.009 292.2 197.009 292.2 197.009 292.2C197.009 292.2 197.009 292.2 197.009 292.2C197.009 292.2 197.009 292.2 197.009 292.2C197.009 292.2 197.009 292.2 197.009 292.2C197.009 292.2 197.009 292.2 197.009 292.2C197.009 292.2 197.009 292.2 197.009 292.2C197.009 292.2 197.009 292.2 197.009 292.2C197.009 292.2 197.009 292.2 197.009 292.2C197.009 292.2 197.009 292.2 197.009 292.2C197.009 292.2 197.009 292.2 197.009 292.2C197.009 292.2 197.009 292.2 197.009 292.2C197.009 292.2 197.009 292.2 197.009 292.2C197.009 292.2 197.009 292.2 197.009 292.2C197.009 292.2 197.009 292.2 197.009 292.2C197.009 292.2 197.009 292.2 197.009 292.2C197.009 292.2 197.009 292.2 197.009 292.2C197.009 292.2 197.009 292.2 197.009 292.2C197.009 292.2 197.009 292.2 197.009 292.2C197.009 292.2 197.009 292.2 197.009 292.2C197.009 292.2 197.009 292.2 197.009 292.2C197.009 292.2 197.009 292.2 197.009 292.2C197.009 292.2 197.009 292.2 197.009 292.2C197.009 292.2 197.009 292.2 197.009 292.2C197.009 292.2 197.009 292.2 197.009 292.2C197.009 292.2 197.009 292.2 197.009 292.2C197.009 292.2 197.009 292.2 197.009 292.2C197.009 292.2 197.009 292.2 197.009 292.2C197.009 292.2 197.009 292.2 197.009 292.2C197.009 292.2 197.009 292.2 197.009 292.2C197.009 292.2 197.009 292.2 197.009 292.2C197.009 292.2 197.009 292.2 197.009 292.2C197.009 292.2 197.009 292.2 197.009 292.2C197.009 292.2 197.009 292.2 197.009 292.2C197.009 292.2 197.009 292.2 197.009 292.2C197.009 292.2 197.009 292.2 197.009 292.2C197.009 292.2 197.009 292.2 197.009 292.2C197.009 292.2 197.009 292.2 197.009 292.2C197.009 292.2 197.009 292.2 197.009 292.2C197.009 292.2 197.009 292.2 197.009 292.2C197.009 292.2 197.009 292.2 197.009 292.2C197.009 292.2 197.009 292.2 197.009 292.2C197.009 292.2 197.009 292.2 197.009 292.2C197.009 292.2 197.009 292.2 197.009 292.2C197.009 292.2 197.009 292.2 197.009 292.2C197.009 292.2 197.009 292.2 197.009 292.2C197.009 292.2 197.009 292.2 197.009 292.2C197.009 292.2 197.009 292.2 197.01 292.2C197.01 292.2 197.01 292.2 197.01 292.2C197.01 292.2 197.01 292.2 197.01 292.2C197.01 292.2 197.01 292.2 197.01 292.2C197.01 292.2 197.01 292.2 197.01 292.2C197.01 292.2 197.01 292.2 197.01 292.2C197.01 292.2 197.01 292.2 197.01 292.2C197.01 292.2 197.01 292.2 197.01 292.2C197.01 292.2 197.01 292.2 197.01 292.2C197.01 292.2 197.01 292.2 197.01 292.2C197.01 292.2 197.01 292.2 197.01 292.2C197.01 292.2 197.01 292.2 197.01 292.2C197.01 292.2 197.01 292.2 197.01 292.2C197.01 292.2 197.01 292.2 197.01 292.2C197.01 292.2 197.01 292.2 197.01 292.2C197.01 292.2 197.01 292.2 197.01 292.2C197.01 292.2 197.01 292.2 197.01 292.2C197.01 292.2 197.01 292.2 197.01 292.2C197.01 292.2 197.01 292.2 197.01 292.2C197.01 292.2 197.01 292.2 197.01 292.2C197.01 292.2 197.01 292.2 197.01 292.2C197.01 292.2 197.01 292.2 197.01 292.2C197.01 292.2 197.01 292.2 197.01 292.2C197.01 292.2 197.01 292.2 197.01 292.2C197.01 292.2 197.01 292.2 197.01 292.2C197.01 292.2 197.01 292.2 197.01 292.2C197.01 292.2 197.01 292.2 197.01 292.2C197.01 292.2 197.01 292.2 197.01 292.2C197.01 292.2 197.01 292.2 197.01 292.2C197.01 292.2 197.01 292.2 197.01 292.2C197.01 292.2 197.01 292.2 197.01 292.2C197.01 292.2 197.01 292.2 197.01 292.2C197.01 292.2 197.01 292.2 197.01 292.2C197.01 292.2 197.01 292.2 197.01 292.2C197.01 292.2 197.01 292.2 197.01 292.2C197.01 292.2 197.01 292.2 197.01 292.2C197.01 292.2 197.01 292.2 197.01 292.2C197.01 292.2 197.01 292.2 197.01 292.2C197.01 292.2 197.01 292.2 197.01 292.2C197.01 292.2 197.01 292.2 197.01 292.2C197.01 292.2 197.01 292.2 197.01 292.2C197.01 292.2 197.01 292.2 197.01 292.2C197.01 292.2 197.01 292.2 197.01 292.2C197.01 292.2 197.01 292.2 197.01 292.2C197.01 292.2 197.01 292.2 197.01 292.2C197.01 292.2 197.01 292.2 197.01 292.2C197.01 292.2 197.01 292.2 197.01 292.2C197.01 292.2 197.01 292.2 197.01 292.2C197.01 292.2 197.01 292.2 197.01 292.2C197.01 292.2 197.011 292.2 197.011 292.2V285.4ZM299 285.4H197.011V292.2H299V285.4ZM295.6 207.2V288.8H302.4V207.2H295.6Z" fill="#FFCD93" mask="url(#path-21-inside-1_8_293)"/>
<path d="M227.6 248V241.2C227.6 237.444 230.644 234.4 234.4 234.4V234.4C238.156 234.4 241.2 237.444 241.2 241.2V248" stroke="#FFCD93" stroke-width="3.4" stroke-linecap="round"/>
<rect x="222.5" y="246.3" width="23.8" height="17" rx="1.7" fill="black" stroke="#FFCD93" stroke-width="3.4"/>
<path d="M314.3 248C314.3 259.098 312.422 269.066 309.452 276.196C307.965 279.765 306.237 282.542 304.406 284.401C302.581 286.254 300.755 287.1 299 287.1C297.245 287.1 295.419 286.254 293.594 284.401C291.763 282.542 290.035 279.765 288.548 276.196C285.578 269.066 283.7 259.098 283.7 248C283.7 236.902 285.578 226.934 288.548 219.804C290.035 216.235 291.763 213.458 293.594 211.599C295.419 209.746 297.245 208.9 299 208.9C300.755 208.9 302.581 209.746 304.406 211.599C306.237 213.458 307.965 216.235 309.452 219.804C312.422 226.934 314.3 236.902 314.3 248Z" fill="black" stroke="#FFCD93" stroke-width="3.4"/>
<path d="M285.4 246.3C284.461 246.3 283.7 247.061 283.7 248C283.7 248.939 284.461 249.7 285.4 249.7V246.3ZM358.002 249.202C358.666 248.538 358.666 247.462 358.002 246.798L347.183 235.979C346.519 235.315 345.443 235.315 344.779 235.979C344.115 236.643 344.115 237.719 344.779 238.383L354.396 248L344.779 257.617C344.115 258.281 344.115 259.357 344.779 260.021C345.443 260.685 346.519 260.685 347.183 260.021L358.002 249.202ZM285.4 249.7H356.8V246.3H285.4V249.7Z" fill="#FFCD93"/>
<path d="M288.8 225.9C287.861 225.9 287.1 226.661 287.1 227.6C287.1 228.539 287.861 229.3 288.8 229.3V225.9ZM330.802 185.598C330.138 184.934 329.062 184.934 328.398 185.598L317.579 196.417C316.915 197.081 316.915 198.157 317.579 198.821C318.243 199.485 319.319 199.485 319.983 198.821L329.6 189.204L339.217 198.821C339.881 199.485 340.957 199.485 341.621 198.821C342.285 198.157 342.285 197.081 341.621 196.417L330.802 185.598ZM288.8 229.3H322.8V225.9H288.8V229.3ZM331.3 220.8V186.8H327.9V220.8H331.3ZM322.8 229.3C327.494 229.3 331.3 225.494 331.3 220.8H327.9C327.9 223.617 325.617 225.9 322.8 225.9V229.3Z" fill="#FFCD93"/>
<path d="M288.8 270.1C287.861 270.1 287.1 269.339 287.1 268.4C287.1 267.461 287.861 266.7 288.8 266.7V270.1ZM330.802 310.402C330.138 311.066 329.062 311.066 328.398 310.402L317.579 299.583C316.915 298.919 316.915 297.843 317.579 297.179C318.243 296.515 319.319 296.515 319.983 297.179L329.6 306.796L339.217 297.179C339.881 296.515 340.957 296.515 341.621 297.179C342.285 297.843 342.285 298.919 341.621 299.583L330.802 310.402ZM288.8 266.7H322.8V270.1H288.8V266.7ZM331.3 275.2V309.2H327.9V275.2H331.3ZM322.8 266.7C327.494 266.7 331.3 270.506 331.3 275.2H327.9C327.9 272.383 325.617 270.1 322.8 270.1V266.7Z" fill="#FFCD93"/>
<g filter="url(#filter0_d_8_293)">
<rect x="102.5" y="102.5" width="291" height="291" rx="9.5" stroke="url(#paint14_linear_8_293)" shape-rendering="crispEdges"/>
</g>
<defs>
<filter id="filter0_d_8_293" x="86" y="90" width="324" height="324" filterUnits="userSpaceOnUse" color-interpolation-filters="sRGB">
<feFlood flood-opacity="0" result="BackgroundImageFix"/>
<feColorMatrix in="SourceAlpha" type="matrix" values="0 0 0 0 0 0 0 0 0 0 0 0 0 0 0 0 0 0 127 0" result="hardAlpha"/>
<feOffset dy="4"/>
<feGaussianBlur stdDeviation="8"/>
<feComposite in2="hardAlpha" operator="out"/>
<feColorMatrix type="matrix" values="0 0 0 0 0 0 0 0 0 0 0 0 0 0 0 0 0 0 0.16 0"/>
<feBlend mode="normal" in2="BackgroundImageFix" result="effect1_dropShadow_8_293"/>
<feBlend mode="normal" in="SourceGraphic" in2="effect1_dropShadow_8_293" result="shape"/>
</filter>
<radialGradient id="paint0_radial_8_293" cx="0" cy="0" r="1" gradientUnits="userSpaceOnUse" gradientTransform="translate(248 248) rotate(90) scale(229.5)">
<stop stop-color="#FEC794"/>
<stop offset="1" stop-color="#000C17" stop-opacity="0"/>
</radialGradient>
<linearGradient id="paint1_linear_8_293" x1="400" y1="253" x2="464.727" y2="253" gradientUnits="userSpaceOnUse">
<stop stop-color="#FDCE92"/>
<stop offset="1" stop-color="#FFBB96" stop-opacity="0.48"/>
</linearGradient>
<linearGradient id="paint2_linear_8_293" x1="400" y1="309" x2="464.727" y2="309" gradientUnits="userSpaceOnUse">
<stop stop-color="#FED192"/>
<stop offset="1" stop-color="#FFBB96" stop-opacity="0.48"/>
</linearGradient>
<linearGradient id="paint3_linear_8_293" x1="304" y1="96" x2="304" y2="31.2727" gradientUnits="userSpaceOnUse">
<stop stop-color="#FEC495"/>
<stop offset="1" stop-color="#FFBB96" stop-opacity="0.48"/>
</linearGradient>
<linearGradient id="paint4_linear_8_293" x1="96" y1="248" x2="31.2727" y2="248" gradientUnits="userSpaceOnUse">
<stop stop-color="#FDC194"/>
<stop offset="1" stop-color="#FFBB96" stop-opacity="0.48"/>
</linearGradient>
<linearGradient id="paint5_linear_8_293" x1="400" y1="197" x2="464.727" y2="197" gradientUnits="userSpaceOnUse">
<stop stop-color="#FDCC92"/>
<stop offset="1" stop-color="#FFBB96" stop-opacity="0.48"/>
</linearGradient>
<linearGradient id="paint6_linear_8_293" x1="192" y1="96" x2="192" y2="31.2727" gradientUnits="userSpaceOnUse">
<stop stop-color="#FEBF96"/>
<stop offset="1" stop-color="#FFBB96" stop-opacity="0.48"/>
</linearGradient>
<linearGradient id="paint7_linear_8_293" x1="248" y1="8" x2="248" y2="88.9091" gradientUnits="userSpaceOnUse">
<stop stop-color="#FFBB96" stop-opacity="0"/>
<stop offset="1" stop-color="#FEC195"/>
</linearGradient>
<linearGradient id="paint8_linear_8_293" x1="192" y1="488" x2="192" y2="407.091" gradientUnits="userSpaceOnUse">
<stop stop-color="#FFBB96" stop-opacity="0"/>
<stop offset="1" stop-color="#FFCC93"/>
</linearGradient>
<linearGradient id="paint9_linear_8_293" x1="248" y1="488" x2="248" y2="407.091" gradientUnits="userSpaceOnUse">
<stop stop-color="#FFBB96" stop-opacity="0"/>
<stop offset="1" stop-color="#FFCF93"/>
</linearGradient>
<linearGradient id="paint10_linear_8_293" x1="304" y1="488" x2="304" y2="407.091" gradientUnits="userSpaceOnUse">
<stop stop-color="#FFBB96" stop-opacity="0"/>
<stop offset="1" stop-color="#FFD192"/>
</linearGradient>
<linearGradient id="paint11_linear_8_293" x1="8" y1="192" x2="88.9091" y2="192" gradientUnits="userSpaceOnUse">
<stop stop-color="#FFBB96" stop-opacity="0"/>
<stop offset="1" stop-color="#FDC194"/>
</linearGradient>
<linearGradient id="paint12_linear_8_293" x1="8" y1="304" x2="88.9091" y2="304" gradientUnits="userSpaceOnUse">
<stop stop-color="#FFBB96" stop-opacity="0"/>
<stop offset="1" stop-color="#FDC194"/>
</linearGradient>
<linearGradient id="paint13_linear_8_293" x1="96" y1="96" x2="400" y2="400" gradientUnits="userSpaceOnUse">
<stop stop-color="#FFBB96"/>
<stop offset="1" stop-color="#FFD591"/>
</linearGradient>
<linearGradient id="paint14_linear_8_293" x1="248" y1="102" x2="248" y2="394" gradientUnits="userSpaceOnUse">
<stop stop-color="#C7AC93"/>
<stop offset="0.690661" stop-color="#BFBFBF" stop-opacity="0"/>
</linearGradient>
</defs>
</svg>
